<?xml version="1.0"?>

<!DOCTYPE svg PUBLIC '-//W3C//DTD SVG 1.0//EN' 'http://www.w3.org/TR/2001/REC-SVG-20010904/DTD/svg10.dtd'>
<svg fill-opacity="1"
xmlns:xlink="http://www.w3.org/1999/xlink"
color-rendering="auto"
color-interpolation="auto"
text-rendering="auto"
stroke="black"
stroke-linecap="square"
stroke-miterlimit="10"
shape-rendering="auto"
stroke-opacity="1"
fill="black"
stroke-dasharray="none"
font-weight="normal"
stroke-width="1"
xmlns="http://www.w3.org/2000/svg"
font-family="&apos;Dialog&apos;"
font-style="normal"
stroke-linejoin="miter"
font-size="12"
viewBox="14 158 260 254"
stroke-dashoffset="0"
image-rendering="auto">
  <!--Unicode Character 'POWER SYMBOL' (U+23FB)-->
  <defs id="genericDefs" />
  <g>
    <g>
      <path d="M158.0625 273.375 Q158.0625 279.5625 154.125 283.5 Q150.1875 287.4375 144 287.4375 Q137.8125 287.4375 133.875 283.5 Q129.9375 279.5625 129.9375 273.375 L129.9375 175.5 Q129.9375 169.3125 133.875 165.375 Q137.8125 161.4375 144 161.4375 Q150.1875 161.4375 154.125 165.375 Q158.0625 169.3125 158.0625 175.5 L158.0625 273.375 ZM264.375 283.2188 Q264.375 332.8594 228.9375 368.5078 Q193.5 404.1562 144 404.1562 Q94.2188 404.1562 58.9219 368.6484 Q23.625 333.1406 23.625 283.2188 Q23.625 248.4844 43.0312 218.25 Q45.4219 214.3125 50.7656 207.1406 Q55.8281 201.2344 61.7344 201.2344 Q67.5 201.2344 71.9297 205.4531 Q76.3594 209.6719 76.3594 215.4375 Q76.3594 219.5156 73.2656 224.0156 Q61.1719 241.7344 57.2344 251.5781 Q51.75 265.2188 51.75 283.2188 Q51.75 321.4688 78.8203 348.75 Q105.8906 376.0312 144 376.0312 Q181.9688 376.0312 209.1094 348.6094 Q236.25 321.1875 236.25 283.2188 Q236.25 265.2188 230.7656 251.5781 Q226.6875 241.7344 214.7344 224.0156 Q211.6406 219.375 211.6406 215.4375 Q211.6406 209.8125 216.1406 205.5938 Q220.6406 201.375 226.4062 201.375 Q232.3125 201.375 237.2344 207.1406 Q239.625 209.9531 244.9688 218.25 Q264.375 248.4844 264.375 283.2188 Z" stroke="none" />
    </g>
  </g>
</svg>
